<?xml version="1.0" encoding="utf-8"?>
<!-- Generator: Adobe Illustrator 24.0.0, SVG Export Plug-In . SVG Version: 6.00 Build 0)  -->
<svg version="1.1" id="Layer_1" xmlns="http://www.w3.org/2000/svg" xmlns:xlink="http://www.w3.org/1999/xlink" x="0px" y="0px"
	 viewBox="0 0 63.2 63.2" style="enable-background:new 0 0 63.2 63.2;" xml:space="preserve">
<style type="text/css">
	.st0{fill:#27B4D2;}
	.st1{fill:#0061A2;}
	.st2{fill:#0097C4;}
	.st3{fill:#243A76;}
</style>
<g>
	<g>
		<g>
			<path class="st0" d="M48.5,46.4L29.7,57.3c-0.7,0.4-1.6,0.4-2.3,0l-22.6-13c-0.1-0.1-0.3,0.1-0.3,0.2c0.3,0.9,0.8,1.6,1.6,2.1
				l20.6,11.9c0.5,0.3,1.2,0.5,1.8,0.5c0.6,0,1.2-0.2,1.8-0.5L48.5,48c0.2-0.1,0.3-0.3,0.3-0.5v-0.8C48.8,46.4,48.6,46.3,48.5,46.4z
				"/>
			<path class="st0" d="M4.7,41.2l0.6,0.4c0.1,0.1,0.3,0,0.3-0.2V19.6c0-0.8,0.4-1.5,1.1-2l22.6-13c0.1-0.1,0.1-0.3-0.1-0.3
				c-0.9-0.2-1.8-0.1-2.6,0.4L6.2,16.6c-1.1,0.6-1.8,1.8-1.8,3.1v21C4.4,40.9,4.5,41.1,4.7,41.2z"/>
			<path class="st0" d="M50.9,16.6L32.7,6.1c-0.2-0.1-0.4-0.1-0.6,0l-0.7,0.4c-0.1,0.1-0.1,0.3,0,0.4l18.8,10.9
				c0.7,0.4,1.1,1.1,1.1,1.9v26.1c0,0.2,0.2,0.3,0.3,0.1c0.6-0.6,1-1.5,1-2.4V19.6C52.7,18.4,52,17.2,50.9,16.6z"/>
		</g>
		<path class="st1" d="M30.8,18.1c0.3-0.2,0.3-0.7,0-0.9l-1.5-0.9c-0.3-0.1-0.5-0.2-0.8-0.2s-0.6,0.1-0.8,0.2l-11.9,6.9
			c-0.5,0.3-0.8,0.9-0.8,1.5v13.7c0,0.6,0.3,1.2,0.8,1.5l11.9,6.9c0.3,0.1,0.5,0.2,0.8,0.2s0.6-0.1,0.8-0.2l11.9-6.9
			c0.5-0.3,0.8-0.9,0.8-1.5V24.7c0-0.6-0.3-1.2-0.8-1.5l-5.3-3.1c-0.3-0.2-0.6-0.2-0.9,0l-2,1.1c-0.3,0.2-0.3,0.6,0,0.8l5.9,3.4
			v12.1l-10.5,6l-10.5-6v-12L30.8,18.1z"/>
		<g>
			<path class="st2" d="M33.6,50.2c0.3,0.2,0.6,0.2,0.9,0l11.6-6.7c1-0.6,1.6-1.7,1.6-2.8V22.3c0-1.2-0.6-2.3-1.6-2.8
				c-0.2-0.1-0.4,0-0.4,0.2v21c0,0.4-0.2,0.8-0.6,1L32.5,49c-0.2,0.1-0.2,0.4,0,0.5L33.6,50.2z M41.8,17l-11.6-6.7
				c-1-0.6-2.3-0.6-3.3,0L11,19.5c-1,0.6-1.6,1.7-1.6,2.8v18.4c0,1,0.5,2,1.3,2.6c0.1,0.1,0.2,0.2,0.4,0.3L27,52.8
				c1,0.6,2.3,0.6,3.3,0c0.2-0.1,0.2-0.4,0-0.5L12,41.8c-0.4-0.2-0.6-0.6-0.6-1V22.4c0-0.4,0.2-0.8,0.6-1l15.9-9.2
				c0.2-0.1,0.4-0.2,0.6-0.2s0.4,0.1,0.6,0.2l12.4,7.2c0.3,0.2,0.6,0,0.6-0.3v-1.3C42.1,17.3,42,17.1,41.8,17z"/>
			<g>
				<path class="st3" d="M29.9,27.6L29.9,27.6L29.9,27.6 M28.5,24.4c-0.1,0-0.3,0-0.4,0.1l-5.5,3.2c-0.2,0.1-0.4,0.4-0.4,0.7v6.4
					c0,0.3,0.1,0.5,0.4,0.7l5.5,3.2c0.1,0.1,0.3,0.1,0.4,0.1s0.3,0,0.4-0.1l5.5-3.2c0.2-0.1,0.4-0.4,0.4-0.7v-6.4
					c0-0.3-0.1-0.5-0.4-0.7l-5.5-3.2C28.7,24.4,28.6,24.4,28.5,24.4L28.5,24.4z"/>
			</g>
		</g>
	</g>
</g>
</svg>
